<?xml version="1.0" encoding="utf-8"?>
<!-- Generator: Adobe Illustrator 27.4.0, SVG Export Plug-In . SVG Version: 6.00 Build 0)  -->
<svg version="1.1" id="Layer_1" xmlns="http://www.w3.org/2000/svg" xmlns:xlink="http://www.w3.org/1999/xlink" x="0px" y="0px"
	 viewBox="0 0 24 24" style="enable-background:new 0 0 24 24;" xml:space="preserve">
<style type="text/css">
	.st0{fill:#5C68AD;}
</style>
<g>
	<path class="st0" d="M19,24c-0.1,0-0.2,0-0.3-0.1l-2-1.2c-0.1-0.1-0.2-0.3-0.2-0.4v-2c0-0.2,0.1-0.3,0.2-0.4l0.1-0.1L11.7,15
		l-1.4,0.9c-0.2,0.1-0.4,0.1-0.5,0L8,14.8l-3.6,3.8l0.3,0.2C4.9,18.9,5,19.1,5,19.2v2c0,0.2-0.1,0.3-0.2,0.4l-2,1.2
		c-0.2,0.1-0.4,0.1-0.5,0l-2-1.2C0.1,21.6,0,21.4,0,21.2v-2c0-0.2,0.1-0.3,0.2-0.4l2-1.2c0.2-0.1,0.4-0.1,0.5,0l0.8,0.5l3.6-3.8
		l-0.9-0.6C6.1,13.6,6,13.4,6,13.2V10L3.7,7.8l-1,0.6c-0.2,0.1-0.4,0.1-0.5,0l-2-1.2C0.1,7.1,0,6.9,0,6.8v-2c0-0.2,0.1-0.3,0.2-0.4
		l2-1.2C2.4,3,2.6,3,2.8,3.1l2,1.2C4.9,4.4,5,4.6,5,4.8v2c0,0.2-0.1,0.3-0.2,0.4L4.6,7.3l1.9,1.9l3.2-2c0.2-0.1,0.4-0.1,0.5,0
		l2.3,1.5l3-3.2l-0.3-0.2C15.1,5.1,15,4.9,15,4.8v-2c0-0.2,0.1-0.3,0.2-0.4l2-1.2c0.2-0.1,0.4-0.1,0.5,0l2,1.2
		C19.9,2.4,20,2.6,20,2.8v2c0,0.2-0.1,0.3-0.2,0.4l-2,1.2c-0.2,0.1-0.4,0.1-0.5,0l-0.8-0.5l-3,3.2l0.4,0.2C13.9,9.4,14,9.6,14,9.8
		V11h4v-0.5c0-0.2,0.1-0.3,0.2-0.4l2-1.2c0.2-0.1,0.4-0.1,0.5,0l2,1.2c0.1,0.1,0.2,0.3,0.2,0.4v2c0,0.2-0.1,0.3-0.2,0.4l-2,1.2
		c-0.2,0.1-0.4,0.1-0.5,0l-2-1.2c-0.1-0.1-0.2-0.3-0.2-0.4V12h-4v1.2c0,0.2-0.1,0.3-0.2,0.4l-1.2,0.8l5.2,4.7l1-0.6
		c0.2-0.1,0.4-0.1,0.5,0l2,1.2c0.1,0.1,0.2,0.3,0.2,0.4v2c0,0.2-0.1,0.3-0.2,0.4l-2,1.2C19.2,24,19.1,24,19,24z M17.5,22l1.5,0.9
		l1.5-0.9v-1.4L19,19.6l-1,0.6c0,0,0,0,0,0l-0.4,0.3V22z M21,22.2L21,22.2L21,22.2z M1,21l1.5,0.9L4,21v-1.4l-0.6-0.4c0,0,0,0,0,0
		l-0.9-0.6L1,19.5V21z M4.5,21.2L4.5,21.2L4.5,21.2z M8.2,13.8l1.8,1.1l1.4-0.9c0,0,0,0,0,0l1.5-1v-3l-0.6-0.4c0,0,0,0,0,0L10,8.1
		L7,10v3L8.2,13.8C8.2,13.8,8.2,13.8,8.2,13.8z M13.5,13.2L13.5,13.2L13.5,13.2z M19,12.2l1.5,0.9l1.5-0.9v-1.4l-1.5-0.9L19,10.8
		V12.2z M22.5,12.5L22.5,12.5L22.5,12.5z M1,6.5l1.5,0.9L4,6.5V5L2.5,4.1L1,5V6.5z M4.5,6.8L4.5,6.8L4.5,6.8z M16.6,4.8l0.9,0.6
		L19,4.5V3l-1.5-0.9L16,3v1.4L16.6,4.8C16.6,4.8,16.6,4.8,16.6,4.8z M19.5,4.8L19.5,4.8L19.5,4.8z"/>
</g>
</svg>
