<?xml version="1.0" encoding="utf-8"?>
<!-- Generator: Adobe Illustrator 27.4.0, SVG Export Plug-In . SVG Version: 6.00 Build 0)  -->
<svg version="1.1" id="Layer_1" xmlns="http://www.w3.org/2000/svg" xmlns:xlink="http://www.w3.org/1999/xlink" x="0px" y="0px"
	 viewBox="0 0 2048 2048" style="enable-background:new 0 0 2048 2048;" xml:space="preserve">
<style type="text/css">
	.st0{fill:#5C68AD;}
</style>
<path class="st0" d="M960,1796c32,0,64.7-1,98-3c16.7,44,37.3,85,62,123c-26.7,2.7-53.3,4.7-80,6c-26.7,1.3-53.3,2-80,2
	c-89.3,0-176.7-7.3-262-22c-24.7-4-52.7-9.7-84-17s-63.3-17-96-29s-64.7-25.7-96-41s-59.3-33.7-84-55s-44.3-44.3-59-69
	s-22.3-53.7-23-87V452c0-30,6.3-56.7,19-80s29.7-45.3,51-66c22.7-22.7,49.7-42.7,81-60s65.7-32.3,103-45s75.7-23.7,115-33
	s79-16.3,119-21s78-8.3,114-11s70-4,102-4c48,0,101,2.7,159,8s116.3,14.3,175,27s114.3,30.7,167,54s97,51.7,133,85
	c20.7,19.3,37.3,41.3,50,66s19.3,51.3,20,80v572h-128V642c-40,24.7-83.7,45.3-131,62s-96.3,30-147,40s-101.3,17-152,21
	s-99.3,6.3-146,7c-46,0-94.3-2-145-6s-101.7-11.3-153-22s-100.3-24-147-40s-90.3-36.7-131-62v962c0,13.3,4.7,25.7,14,37
	s19,20.7,29,28c31.3,24.7,69.3,45,114,61s92,29,142,39s99,17,147,21S921.3,1796,960,1796 M960,260c-34,0-69.3,1-106,3s-74,6-112,12
	s-74.7,13.3-110,22s-69,19.7-101,33c-10,4-23.3,10-40,18s-33,17.7-49,29s-29.7,23-41,35s-17,25.3-17,40c0,5.3,1,10.3,3,15
	s4.7,9.3,8,14c14.7,21.3,35.7,40.3,63,57s58,31,92,43s70,22,108,30s75.7,14.3,113,19s72,8.3,104,11s60.3,3.7,85,3
	c23.3,0,51.3-1,84-3c32.7-2,67.7-5.3,105-10s74.7-11.3,112-20s73.7-18.7,109-30s65.7-25.3,91-42s46.7-36,64-58c3.3-4.7,6-9.3,8-14
	s3-9.7,3-15c0-14-5.7-27.3-17-40s-25-24.3-41-35s-32.3-20-49-28s-30-14.3-40-19c-31.3-12.7-65-23.3-101-32s-72.7-16-110-22
	s-74.3-10-111-12S994.7,260.7,960,260 M1914,1539c4,20,6,40.3,6,61s-2,41-6,61l124,51l-49,119l-124-52c-23.3,34-52,62.7-86,86
	l52,124l-119,49l-51-124c-20,4-40.3,6-61,6s-41-2-61-6l-51,124l-119-49l52-124c-34-23.3-62.7-52-86-86l-124,52l-49-119l124-51
	c-4-20-6-40.3-6-61s2-41,6-61l-124-51l49-119l124,52c23.3-34,52-62.7,86-86l-52-124l119-49l51,124c20-4,40.3-6,61-6s41,2,61,6
	l51-124l119,49l-52,124c34,23.3,62.7,52,86,86l124-52l49,119L1914,1539z M1600,1792c26.7,0,51.7-5,75-15s43.7-23.7,61-41
	s31-37.7,41-61s15-48.3,15-75s-5-51.7-15-75s-23.7-43.7-41-61s-37.7-31-61-41s-48.3-15-75-15s-51.7,5-75,15s-43.7,23.7-61,41
	s-31,37.7-41,61s-15,48.3-15,75s5,51.7,15,75s23.7,43.7,41,61s37.7,31,61,41S1573.3,1792,1600,1792"/>
</svg>
