<?xml version="1.0" encoding="utf-8"?>
<!-- Generator: Adobe Illustrator 27.4.0, SVG Export Plug-In . SVG Version: 6.00 Build 0)  -->
<svg version="1.1" id="Layer_1" xmlns="http://www.w3.org/2000/svg" xmlns:xlink="http://www.w3.org/1999/xlink" x="0px" y="0px"
	 viewBox="0 0 24 24" style="enable-background:new 0 0 24 24;" xml:space="preserve">
<style type="text/css">
	.st0{fill:#5C68AD;}
</style>
<path class="st0" d="M22,0H2C0.9,0,0,0.9,0,2v20c0,1.1,0.9,2,2,2h20c1.1,0,2-0.9,2-2V2C24,0.9,23.1,0,22,0 M6,16c-0.6,0-1-0.4-1-1
	s0.4-1,1-1s1,0.4,1,1S6.6,16,6,16 M22,6h-2.2c-0.6-1.6-2.3-2.4-3.8-1.8S13.6,6.4,14.2,8c0.6,1.6,2.3,2.4,3.8,1.8
	c0.9-0.3,1.5-1,1.8-1.8H22v4h-4v2h4v2h-2v2h2v4h-8v-1.2c1.6-0.6,2.4-2.3,1.8-3.8c-0.6-1.6-2.3-2.4-3.8-1.8c-1.6,0.6-2.4,2.3-1.8,3.8
	c0.3,0.9,1,1.5,1.8,1.8V22H7v-4.2c1.6-0.6,2.4-2.3,1.8-3.8c-0.6-1.6-2.3-2.4-3.8-1.8c-1.6,0.6-2.4,2.3-1.8,3.8
	c0.3,0.9,1,1.5,1.8,1.8V22H2V2h4v6h2V2h2v10h2V2h10V6z M18,7c0,0.6-0.4,1-1,1s-1-0.4-1-1s0.4-1,1-1S18,6.4,18,7"/>
</svg>
