<?xml version="1.0" encoding="utf-8"?>
<!-- Generator: Adobe Illustrator 27.4.0, SVG Export Plug-In . SVG Version: 6.00 Build 0)  -->
<svg version="1.1" id="Layer_1" xmlns="http://www.w3.org/2000/svg" xmlns:xlink="http://www.w3.org/1999/xlink" x="0px" y="0px"
	 viewBox="0 0 24 24" style="enable-background:new 0 0 24 24;" xml:space="preserve">
<style type="text/css">
	.st0{fill:#5C68AD;}
</style>
<path class="st0" d="M14,18.3c-1.1-0.5-2-1.3-2.7-2.3H3V4h18v2.3c0.8,0.6,1.5,1.3,2,2.1V4c0-1.1-0.9-2-2-2H3C1.9,2,1,2.9,1,4v12
	c0,1.1,0.9,2,2,2h7v2H8v2h8v-2h-2V18.3z"/>
<path class="st0" d="M17,6c-3.3,0-6,2.7-6,6s2.7,6,6,6s6-2.7,6-6S20.3,6,17,6 M17,16c-2.2,0-4-1.8-4-4s1.8-4,4-4s4,1.8,4,4
	C21,14.2,19.2,16,17,16"/>
<circle class="st0" cx="17" cy="12" r="1"/>
</svg>
