<?xml version="1.0" encoding="utf-8"?>
<!-- Generator: Adobe Illustrator 27.4.0, SVG Export Plug-In . SVG Version: 6.00 Build 0)  -->
<svg version="1.1" id="Layer_1" xmlns="http://www.w3.org/2000/svg" xmlns:xlink="http://www.w3.org/1999/xlink" x="0px" y="0px"
	 viewBox="0 0 48 48" style="enable-background:new 0 0 48 48;" xml:space="preserve">
<style type="text/css">
	.st0{fill:#5C68AD;}
</style>
<g>
	<g>
		<path class="st0" d="M19,47.5c-2,0-3.6-0.1-4.7-0.3c-1.8-0.3-3.4-1.9-3.7-3.8c-0.2-0.9-0.4-2.3-0.6-3.4c-0.1-0.8,0.4-1.6,1.3-1.7
			c0.8-0.1,1.6,0.4,1.7,1.3c0.2,1,0.4,2.4,0.6,3.3c0.1,0.8,0.6,1.3,1.3,1.4c0.7,0.1,1.9,0.3,4.2,0.3c1.7,0,3.1-0.1,4.1-0.3
			c1.1-0.1,1.6-1.1,1.7-1.8l0.3-3c0.1-0.8,0.8-1.4,1.6-1.3c0.8,0.1,1.4,0.8,1.3,1.6l-0.3,3c-0.3,2.4-2,4.2-4.2,4.4
			C22.5,47.4,20.9,47.5,19,47.5z"/>
	</g>
	<g>
		<path class="st0" d="M36.5,22.4c-0.4,0-0.8-0.1-1.2-0.3c-0.5-0.2-0.8-0.6-1-1l-2-3.5c-0.5-0.7-1.1-1.4-1.9-1.8l-3.6-2
			c-0.6-0.4-1-0.9-1.2-1.5c-0.2-0.7-0.1-1.3,0.2-1.9c0.2-0.5,0.6-0.8,1-1l3.5-2c0.8-0.5,1.4-1.1,1.8-1.9l2-3.6
			c0.7-1.2,2.2-1.6,3.4-0.9c0.5,0.2,0.8,0.6,1,1l2,3.5c0.5,0.7,1.1,1.4,1.9,1.8l3.6,2c0.6,0.4,1,0.9,1.2,1.5
			c0.2,0.7,0.1,1.3-0.2,1.9c-0.2,0.5-0.6,0.8-1,1l-3.5,2c-0.8,0.5-1.4,1.1-1.8,1.9l-2,3.6C38.2,22,37.4,22.4,36.5,22.4z M36.9,19.7
			L36.9,19.7C36.9,19.7,36.9,19.7,36.9,19.7z M29.1,11.5l2.9,1.6c1.3,0.8,2.2,1.7,3,2.9l1.6,2.9l1.6-2.9c0.8-1.3,1.7-2.2,2.9-3
			l2.9-1.6l-2.9-1.6c-1.3-0.8-2.2-1.7-3-2.9l-1.6-2.9l-1.6,2.9c-0.8,1.3-1.7,2.2-2.9,3L29.1,11.5z M28.3,11.9L28.3,11.9
			C28.3,11.9,28.3,11.9,28.3,11.9z M44.7,11.1C44.7,11.1,44.7,11.1,44.7,11.1L44.7,11.1z M36.1,3.3C36.1,3.3,36.1,3.3,36.1,3.3
			L36.1,3.3z"/>
	</g>
	<g>
		<path class="st0" d="M19,41.5c-3.3,0-5.5-0.2-6.9-0.3l-0.5,0c-1.7-0.2-3-1.3-3.5-2.9c-0.4-1.1-0.7-2.2-0.9-3.1
			C3,31.8,0.5,26.5,0.5,21C0.5,10.8,8.8,2.5,19,2.5c2.5,0,4.9,0.5,7.1,1.4c0.8,0.3,1.1,1.2,0.8,2c-0.3,0.8-1.2,1.1-2,0.8
			c-1.8-0.8-3.8-1.2-5.9-1.2c-8.5,0-15.5,7-15.5,15.5c0,4.8,2.2,9.3,5.9,12.2c0.3,0.2,0.5,0.5,0.5,0.8c0.2,1,0.5,2.1,1,3.4
			c0.1,0.4,0.3,0.7,0.9,0.8l0.4,0c1.4,0.1,3.6,0.3,6.7,0.3s5.3-0.2,6.7-0.3l0.5,0c0.4,0,0.8-0.3,0.9-0.7c0.2-0.5,0.3-1,0.5-1.6
			c0.2-0.6,0.3-1.2,0.5-1.9c0.1-0.3,0.3-0.5,0.5-0.7c2.3-1.8,4-4.2,5-6.9c0.3-0.8,1.1-1.2,1.9-0.9c0.8,0.3,1.2,1.1,0.9,1.9
			c-1.1,3.1-3.1,5.8-5.6,8c-0.1,0.5-0.3,0.9-0.4,1.4c-0.2,0.7-0.3,1.3-0.5,1.7c-0.5,1.5-1.9,2.7-3.5,2.8l-0.5,0
			C24.5,41.3,22.3,41.5,19,41.5z"/>
	</g>
</g>
</svg>
